<svg width="65" height="64" viewBox="0 0 65 64" fill="none" xmlns="http://www.w3.org/2000/svg">
<path d="M2.3418 60.2V3.8C2.3418 3.32261 2.53144 2.86477 2.869 2.52721C3.20657 2.18964 3.66441 2 4.1418 2H60.5418C61.0192 2 61.477 2.18964 61.8146 2.52721C62.1521 2.86477 62.3418 3.32261 62.3418 3.8V24.2C62.3418 24.6774 62.1521 25.1352 61.8146 25.4728C61.477 25.8104 61.0192 26 60.5418 26H28.1418C27.6644 26 27.2066 26.1896 26.869 26.5272C26.5314 26.8648 26.3418 27.3226 26.3418 27.8V60.2C26.3418 60.4364 26.2952 60.6704 26.2048 60.8888C26.1143 61.1072 25.9817 61.3056 25.8146 61.4728C25.6474 61.6399 25.449 61.7725 25.2306 61.863C25.0122 61.9534 24.7782 62 24.5418 62H4.1418C3.90542 62 3.67135 61.9534 3.45297 61.863C3.23458 61.7725 3.03615 61.6399 2.869 61.4728C2.70186 61.3056 2.56927 61.1072 2.47881 60.8888C2.38835 60.6704 2.3418 60.4364 2.3418 60.2V60.2Z" stroke="#1C313A" stroke-width="4" stroke-linecap="round" stroke-linejoin="round"/>
<path d="M44.342 26V17" stroke="#1C313A" stroke-width="4" stroke-linecap="round" stroke-linejoin="round"/>
<path d="M26.3421 26V17" stroke="#1C313A" stroke-width="4" stroke-linecap="round" stroke-linejoin="round"/>
<path d="M26.342 44H17.342" stroke="#1C313A" stroke-width="4" stroke-linecap="round" stroke-linejoin="round"/>
<path d="M26.342 26H17.342" stroke="#1C313A" stroke-width="4" stroke-linecap="round" stroke-linejoin="round"/>
</svg>
