<svg width="80" height="59" viewBox="0 0 80 59" fill="none" xmlns="http://www.w3.org/2000/svg">
<path d="M69.0909 15.3636H58.1818V0.818176H7.27273C3.27273 0.818176 0 4.0909 0 8.0909V48.0909H7.27273C7.27273 54.1273 12.1455 59 18.1818 59C24.2182 59 29.0909 54.1273 29.0909 48.0909H50.9091C50.9091 54.1273 55.7818 59 61.8182 59C67.8545 59 72.7273 54.1273 72.7273 48.0909H80V29.9091L69.0909 15.3636ZM67.2727 20.8182L74.4 29.9091H58.1818V20.8182H67.2727ZM18.1818 51.7273C16.1818 51.7273 14.5455 50.0909 14.5455 48.0909C14.5455 46.0909 16.1818 44.4545 18.1818 44.4545C20.1818 44.4545 21.8182 46.0909 21.8182 48.0909C21.8182 50.0909 20.1818 51.7273 18.1818 51.7273ZM26.2545 40.8182C24.2545 38.6 21.4182 37.1818 18.1818 37.1818C14.9455 37.1818 12.1091 38.6 10.1091 40.8182H7.27273V8.0909H50.9091V40.8182H26.2545ZM61.8182 51.7273C59.8182 51.7273 58.1818 50.0909 58.1818 48.0909C58.1818 46.0909 59.8182 44.4545 61.8182 44.4545C63.8182 44.4545 65.4545 46.0909 65.4545 48.0909C65.4545 50.0909 63.8182 51.7273 61.8182 51.7273Z" fill="#1C313A"/>
</svg>
