<svg width="61" height="61" viewBox="0 0 61 61" fill="none" xmlns="http://www.w3.org/2000/svg">
<path fill-rule="evenodd" clip-rule="evenodd" d="M44.247 36.218C43.4984 35.8437 39.8284 34.04 39.1451 33.7888C38.4618 33.5401 37.9644 33.4171 37.4645 34.1656C36.9672 34.9092 35.5378 36.5923 35.1032 37.0896C34.6661 37.5895 34.2315 37.6498 33.4855 37.278C32.7394 36.9012 30.3329 36.115 27.4817 33.5728C25.2636 31.5933 23.7639 29.1491 23.3293 28.4005C22.8948 27.6545 23.2816 27.25 23.6559 26.8782C23.9925 26.5441 24.402 26.0066 24.7763 25.572C25.1506 25.1349 25.2736 24.8234 25.5223 24.3235C25.7735 23.8261 25.6479 23.3915 25.4595 23.0173C25.2736 22.643 23.7815 18.9679 23.1585 17.4732C22.5531 16.0187 21.9377 16.2172 21.4805 16.1921C21.0434 16.172 20.546 16.1669 20.0486 16.1669C19.5512 16.1669 18.7424 16.3528 18.0591 17.1014C17.3733 17.8475 15.4466 19.6536 15.4466 23.3287C15.4466 27.0013 18.1194 30.5508 18.4937 31.0507C18.868 31.5481 23.7564 39.0892 31.2447 42.3222C33.0283 43.0909 34.4174 43.5506 35.5001 43.8922C37.2887 44.4625 38.9165 44.3821 40.2026 44.1886C41.6345 43.9751 44.6188 42.3825 45.2418 40.6391C45.8623 38.8958 45.8623 37.4011 45.6764 37.0896C45.4905 36.7782 44.9931 36.5923 44.2445 36.218H44.247ZM30.6268 54.8145H30.6167C26.169 54.8153 21.803 53.6197 17.9762 51.353L17.0719 50.8154L7.67185 53.2822L10.1814 44.1183L9.59104 43.1788C7.10448 39.2207 5.78857 34.6399 5.79536 29.9655C5.80038 16.275 16.9387 5.13662 30.6368 5.13662C37.2686 5.13662 43.5035 7.72401 48.1909 12.4165C50.5029 14.719 52.3354 17.457 53.5824 20.4723C54.8294 23.4876 55.4661 26.7202 55.4557 29.9831C55.4507 43.6737 44.3123 54.8145 30.6268 54.8145ZM51.758 8.85191C48.9902 6.06588 45.697 3.85683 42.0693 2.35279C38.4416 0.84874 34.5514 0.0796041 30.6243 0.0899467C14.1604 0.0899467 0.756227 13.4916 0.751203 29.963C0.748691 35.2282 2.12277 40.3678 4.7378 44.897L0.5 60.3787L16.3358 56.2238C20.7165 58.6105 25.6256 59.8611 30.6142 59.8612H30.6268C47.0906 59.8612 60.4948 46.4595 60.4999 29.9856C60.512 26.06 59.7456 22.1709 58.2451 18.5434C56.7446 14.9159 54.5397 11.6219 51.758 8.85191Z" fill="#1C313A"/>
</svg>
