<svg width="60" height="61" viewBox="0 0 60 61" fill="none" xmlns="http://www.w3.org/2000/svg">
<path fill-rule="evenodd" clip-rule="evenodd" d="M43.747 36.7998C42.9984 36.4255 39.3284 34.6218 38.6451 34.3706C37.9618 34.1219 37.4644 33.9988 36.9645 34.7474C36.4672 35.491 35.0378 37.1741 34.6032 37.6714C34.1661 38.1713 33.7316 38.2316 32.9855 37.8598C32.2394 37.483 29.8329 36.6968 26.9817 34.1546C24.7636 32.1751 23.2639 29.7309 22.8293 28.9823C22.3948 28.2362 22.7816 27.8318 23.1559 27.46C23.4925 27.1259 23.902 26.5884 24.2763 26.1538C24.6506 25.7167 24.7736 25.4052 25.0223 24.9053C25.2735 24.4079 25.1479 23.9733 24.9595 23.599C24.7736 23.2247 23.2815 19.5496 22.6585 18.055C22.0531 16.6005 21.4377 16.799 20.9805 16.7739C20.5434 16.7538 20.046 16.7487 19.5486 16.7487C19.0512 16.7487 18.2424 16.9346 17.5591 17.6832C16.8733 18.4293 14.9466 20.2354 14.9466 23.9105C14.9466 27.5831 17.6194 31.1326 17.9937 31.6325C18.368 32.1299 23.2564 39.671 30.7447 42.904C32.5283 43.6727 33.9174 44.1324 35.0001 44.474C36.7887 45.0442 38.4165 44.9639 39.7026 44.7704C41.1345 44.5569 44.1188 42.9643 44.7418 41.2209C45.3623 39.4776 45.3623 37.9829 45.1764 37.6714C44.9905 37.3599 44.4931 37.1741 43.7445 36.7998H43.747ZM30.1268 55.3963H30.1167C25.669 55.3971 21.303 54.2015 17.4762 51.9347L16.5719 51.3972L7.17185 53.864L9.68137 44.7001L9.09104 43.7606C6.60448 39.8025 5.28857 35.2216 5.29536 30.5473C5.30038 16.8567 16.4387 5.7184 30.1368 5.7184C36.7686 5.7184 43.0035 8.3058 47.6909 12.9983C50.0029 15.3007 51.8354 18.0388 53.0824 21.0541C54.3294 24.0694 54.9661 27.302 54.9557 30.5649C54.9507 44.2555 43.8123 55.3963 30.1268 55.3963ZM51.258 9.4337C48.4902 6.64766 45.197 4.43862 41.5693 2.93457C37.9416 1.43053 34.0514 0.661391 30.1243 0.671734C13.6604 0.671734 0.256227 14.0734 0.251203 30.5448C0.248691 35.81 1.62277 40.9496 4.2378 45.4788L0 60.9605L15.8358 56.8056C20.2165 59.1923 25.1256 60.4429 30.1142 60.443H30.1268C46.5906 60.443 59.9948 47.0413 59.9999 30.5674C60.012 26.6418 59.2456 22.7527 57.7451 19.1252C56.2446 15.4977 54.0397 12.2036 51.258 9.4337Z" fill="#47C856"/>
</svg>
