<svg width="25" height="25" viewBox="0 0 25 25" fill="none" xmlns="http://www.w3.org/2000/svg">
<path d="M12.862 0.5C6.19533 0.5 0.862 5.83333 0.862 12.5C0.862 19.1667 6.19533 24.5 12.862 24.5C19.5287 24.5 24.862 19.1667 24.862 12.5C24.862 5.83333 19.5287 0.5 12.862 0.5ZM12.862 9.83333C14.3287 9.83333 15.5287 11.0333 15.5287 12.5C15.5287 13.9667 14.3287 15.1667 12.862 15.1667C11.3953 15.1667 10.1953 13.9667 10.1953 12.5C10.1953 11.0333 11.3953 9.83333 12.862 9.83333ZM16.5953 7.16667C16.5953 6.23333 17.3953 5.56667 18.1953 5.56667C18.9953 5.56667 19.7953 6.36667 19.7953 7.16667C19.7953 7.96667 19.1287 8.76667 18.1953 8.76667C17.262 8.76667 16.5953 8.1 16.5953 7.16667ZM12.862 21.8333C7.662 21.8333 3.52867 17.7 3.52867 12.5H7.52867C7.52867 15.4333 9.92867 17.8333 12.862 17.8333C15.7953 17.8333 18.1953 15.4333 18.1953 12.5H22.1953C22.1953 17.7 18.062 21.8333 12.862 21.8333Z" fill="white"/>
</svg>
